<svg width="298" height="32" viewBox="0 0 298 32" fill="none" xmlns="http://www.w3.org/2000/svg">
<g clip-path="url(#clip0_8001_124)">
<path d="M32 16C32 24.8367 24.8367 32 16 32C7.16333 32 0 24.8367 0 16C0 7.16333 7.16333 0 16 0C24.8367 0 32 7.16333 32 16Z" fill="#414952"/>
<path d="M31.9998 16C31.9998 15.8872 31.9978 15.7747 31.9956 15.6624L21.6873 5.35425L20.9255 8.54053L17.7395 5.35425L16.927 10.5835L11.6978 5.35425L10.3123 10.7292L12.0498 12.4668L9.70801 26.6875L14.9878 31.9673C15.3225 31.988 15.6597 32 15.9998 32C24.8364 32 31.9998 24.8367 31.9998 16Z" fill="#333940"/>
<path d="M22.2915 26.6875H9.70801L11.583 8.77075H20.4165L22.2915 26.6875Z" fill="#BEC3D2"/>
<path d="M20.4165 8.77075H15.9751V26.6875H22.2915L20.4165 8.77075Z" fill="#AFB4C8"/>
<path d="M20.302 5.35425V7.04175H17.7395V5.35425H14.2605V7.04175H11.698V5.35425H10.3125V10.7292H21.6875V5.35425H20.302Z" fill="#DCE1EB"/>
<path d="M21.6873 5.35425H20.3018V7.04175H17.7393V5.35425H15.9751V10.7292H21.6873V5.35425Z" fill="#CDD2E1"/>
<path d="M11.0947 13.4375H13.4373V11.8542H11.2605L11.0947 13.4375Z" fill="#AFB4C8"/>
<path d="M12.5205 16.9375H15.3538V18.5208H12.5205V16.9375Z" fill="#AFB4C8"/>
<path d="M18.3955 20.3542H21.2288V21.9375H18.3955V20.3542Z" fill="#9196AA"/>
<path d="M16.375 24.3958H19.2083V25.979H16.375V24.3958Z" fill="#9196AA"/>
<path d="M14.7668 19.3293H12.4336V16.7915C12.4336 16.1472 12.9561 15.625 13.6003 15.625C14.2446 15.625 14.7668 16.1472 14.7668 16.7915V19.3293Z" fill="#707789"/>
<path d="M19.8127 15.625H17.4795V13.0872C17.4795 12.4429 18.002 11.9207 18.6462 11.9207C19.2905 11.9207 19.8127 12.4429 19.8127 13.0872V15.625Z" fill="#636978"/>
<path d="M20.3752 24.0586H18.042V21.5208C18.042 20.8765 18.5642 20.3542 19.2085 20.3542C19.8528 20.3542 20.375 20.8765 20.375 21.5208V24.0586H20.3752Z" fill="#636978"/>
</g>
<path d="M49.312 6.6H58.912V9.8H52.832V15.72H57.664V18.92H52.832V25.8H58.912V29H49.312V6.6ZM66.057 29.32C64.3503 29.32 63.049 28.84 62.153 27.88C61.257 26.8987 60.809 25.5013 60.809 23.688V6.6H64.329V23.944C64.329 24.712 64.4783 25.2667 64.777 25.608C65.097 25.9493 65.545 26.12 66.121 26.12C66.697 26.12 67.1343 25.9493 67.433 25.608C67.753 25.2667 67.913 24.712 67.913 23.944V6.6H71.305V23.688C71.305 25.5013 70.857 26.8987 69.961 27.88C69.065 28.84 67.7637 29.32 66.057 29.32ZM73.812 6.6H79.028C80.8413 6.6 82.164 7.02667 82.996 7.88C83.828 8.712 84.244 10.0027 84.244 11.752V13.128C84.244 15.4533 83.476 16.9253 81.94 17.544V17.608C82.7933 17.864 83.3907 18.3867 83.732 19.176C84.0947 19.9653 84.276 21.0213 84.276 22.344V26.28C84.276 26.92 84.2973 27.4427 84.34 27.848C84.3827 28.232 84.4893 28.616 84.66 29H81.076C80.948 28.6373 80.8627 28.296 80.82 27.976C80.7773 27.656 80.756 27.08 80.756 26.248V22.152C80.756 21.128 80.5853 20.4133 80.244 20.008C79.924 19.6027 79.3587 19.4 78.548 19.4H77.332V29H73.812V6.6ZM78.612 16.2C79.316 16.2 79.8387 16.0187 80.18 15.656C80.5427 15.2933 80.724 14.6853 80.724 13.832V12.104C80.724 11.2933 80.5747 10.7067 80.276 10.344C79.9987 9.98133 79.5507 9.8 78.932 9.8H77.332V16.2H78.612ZM91.8063 29.32C90.0783 29.32 88.7556 28.8293 87.8383 27.848C86.9209 26.8667 86.4622 25.48 86.4622 23.688V11.912C86.4622 10.12 86.9209 8.73333 87.8383 7.752C88.7556 6.77067 90.0783 6.28 91.8063 6.28C93.5343 6.28 94.8569 6.77067 95.7743 7.752C96.6916 8.73333 97.1503 10.12 97.1503 11.912V23.688C97.1503 25.48 96.6916 26.8667 95.7743 27.848C94.8569 28.8293 93.5343 29.32 91.8063 29.32ZM91.8063 26.12C93.0223 26.12 93.6302 25.384 93.6302 23.912V11.688C93.6302 10.216 93.0223 9.48 91.8063 9.48C90.5903 9.48 89.9823 10.216 89.9823 11.688V23.912C89.9823 25.384 90.5903 26.12 91.8063 26.12ZM99.5308 6.6H104.715C106.464 6.6 107.776 7.06933 108.651 8.008C109.525 8.94667 109.963 10.3227 109.963 12.136V14.344C109.963 16.1573 109.525 17.5333 108.651 18.472C107.776 19.4107 106.464 19.88 104.715 19.88H103.051V29H99.5308V6.6ZM104.715 16.68C105.291 16.68 105.717 16.52 105.995 16.2C106.293 15.88 106.443 15.336 106.443 14.568V11.912C106.443 11.144 106.293 10.6 105.995 10.28C105.717 9.96 105.291 9.8 104.715 9.8H103.051V16.68H104.715ZM111.875 6.6H121.475V9.8H115.395V15.72H120.227V18.92H115.395V25.8H121.475V29H111.875V6.6ZM126.252 9.8H122.572V6.6H133.452V9.8H129.772V29H126.252V9.8ZM140.119 29.32C138.391 29.32 137.068 28.8293 136.151 27.848C135.233 26.8667 134.775 25.48 134.775 23.688V11.912C134.775 10.12 135.233 8.73333 136.151 7.752C137.068 6.77067 138.391 6.28 140.119 6.28C141.847 6.28 143.169 6.77067 144.087 7.752C145.004 8.73333 145.463 10.12 145.463 11.912V23.688C145.463 25.48 145.004 26.8667 144.087 27.848C143.169 28.8293 141.847 29.32 140.119 29.32ZM140.119 26.12C141.335 26.12 141.943 25.384 141.943 23.912V11.688C141.943 10.216 141.335 9.48 140.119 9.48C138.903 9.48 138.295 10.216 138.295 11.688V23.912C138.295 25.384 138.903 26.12 140.119 26.12ZM152.963 29.32C151.257 29.32 149.955 28.84 149.059 27.88C148.163 26.8987 147.715 25.5013 147.715 23.688V6.6H151.235V23.944C151.235 24.712 151.385 25.2667 151.683 25.608C152.003 25.9493 152.451 26.12 153.027 26.12C153.603 26.12 154.041 25.9493 154.339 25.608C154.659 25.2667 154.819 24.712 154.819 23.944V6.6H158.211V23.688C158.211 25.5013 157.763 26.8987 156.867 27.88C155.971 28.84 154.67 29.32 152.963 29.32ZM160.718 6.6H165.934C167.748 6.6 169.07 7.02667 169.902 7.88C170.734 8.712 171.15 10.0027 171.15 11.752V13.128C171.15 15.4533 170.382 16.9253 168.846 17.544V17.608C169.7 17.864 170.297 18.3867 170.638 19.176C171.001 19.9653 171.182 21.0213 171.182 22.344V26.28C171.182 26.92 171.204 27.4427 171.246 27.848C171.289 28.232 171.396 28.616 171.566 29H167.982C167.854 28.6373 167.769 28.296 167.726 27.976C167.684 27.656 167.662 27.08 167.662 26.248V22.152C167.662 21.128 167.492 20.4133 167.15 20.008C166.83 19.6027 166.265 19.4 165.454 19.4H164.238V29H160.718V6.6ZM165.518 16.2C166.222 16.2 166.745 16.0187 167.086 15.656C167.449 15.2933 167.63 14.6853 167.63 13.832V12.104C167.63 11.2933 167.481 10.7067 167.182 10.344C166.905 9.98133 166.457 9.8 165.838 9.8H164.238V16.2H165.518Z" fill="white"/>
<path d="M178.75 6.6H188.062V9.8H182.27V16.04H186.814V19.24H182.27V29H178.75V6.6ZM194.838 29.32C193.11 29.32 191.787 28.8293 190.87 27.848C189.952 26.8667 189.493 25.48 189.493 23.688V11.912C189.493 10.12 189.952 8.73333 190.87 7.752C191.787 6.77067 193.11 6.28 194.838 6.28C196.566 6.28 197.888 6.77067 198.806 7.752C199.723 8.73333 200.182 10.12 200.182 11.912V23.688C200.182 25.48 199.723 26.8667 198.806 27.848C197.888 28.8293 196.566 29.32 194.838 29.32ZM194.838 26.12C196.054 26.12 196.661 25.384 196.661 23.912V11.688C196.661 10.216 196.054 9.48 194.838 9.48C193.622 9.48 193.014 10.216 193.014 11.688V23.912C193.014 25.384 193.622 26.12 194.838 26.12ZM202.562 6.6H207.778C209.591 6.6 210.914 7.02667 211.746 7.88C212.578 8.712 212.994 10.0027 212.994 11.752V13.128C212.994 15.4533 212.226 16.9253 210.69 17.544V17.608C211.543 17.864 212.141 18.3867 212.482 19.176C212.845 19.9653 213.026 21.0213 213.026 22.344V26.28C213.026 26.92 213.047 27.4427 213.09 27.848C213.133 28.232 213.239 28.616 213.41 29H209.826C209.698 28.6373 209.613 28.296 209.57 27.976C209.527 27.656 209.506 27.08 209.506 26.248V22.152C209.506 21.128 209.335 20.4133 208.994 20.008C208.674 19.6027 208.109 19.4 207.298 19.4H206.082V29H202.562V6.6ZM207.362 16.2C208.066 16.2 208.589 16.0187 208.93 15.656C209.293 15.2933 209.474 14.6853 209.474 13.832V12.104C209.474 11.2933 209.325 10.7067 209.026 10.344C208.749 9.98133 208.301 9.8 207.682 9.8H206.082V16.2H207.362ZM218.158 9.8H214.478V6.6H225.358V9.8H221.678V29H218.158V9.8ZM227.062 6.6H232.278C234.091 6.6 235.414 7.02667 236.246 7.88C237.078 8.712 237.494 10.0027 237.494 11.752V13.128C237.494 15.4533 236.726 16.9253 235.19 17.544V17.608C236.043 17.864 236.641 18.3867 236.982 19.176C237.345 19.9653 237.526 21.0213 237.526 22.344V26.28C237.526 26.92 237.547 27.4427 237.59 27.848C237.633 28.232 237.739 28.616 237.91 29H234.326C234.198 28.6373 234.113 28.296 234.07 27.976C234.027 27.656 234.006 27.08 234.006 26.248V22.152C234.006 21.128 233.835 20.4133 233.494 20.008C233.174 19.6027 232.609 19.4 231.798 19.4H230.582V29H227.062V6.6ZM231.862 16.2C232.566 16.2 233.089 16.0187 233.43 15.656C233.793 15.2933 233.974 14.6853 233.974 13.832V12.104C233.974 11.2933 233.825 10.7067 233.526 10.344C233.249 9.98133 232.801 9.8 232.182 9.8H230.582V16.2H231.862ZM239.968 6.6H249.568V9.8H243.488V15.72H248.32V18.92H243.488V25.8H249.568V29H239.968V6.6ZM256.232 29.32C254.525 29.32 253.234 28.84 252.36 27.88C251.485 26.8987 251.048 25.5013 251.048 23.688V22.408H254.376V23.944C254.376 25.3947 254.984 26.12 256.2 26.12C256.797 26.12 257.245 25.9493 257.544 25.608C257.864 25.2453 258.024 24.6693 258.024 23.88C258.024 22.9413 257.81 22.12 257.384 21.416C256.957 20.6907 256.168 19.8267 255.016 18.824C253.565 17.544 252.552 16.392 251.976 15.368C251.4 14.3227 251.112 13.1493 251.112 11.848C251.112 10.0773 251.56 8.712 252.456 7.752C253.352 6.77067 254.653 6.28 256.36 6.28C258.045 6.28 259.314 6.77067 260.168 7.752C261.042 8.712 261.48 10.0987 261.48 11.912V12.84H258.152V11.688C258.152 10.92 258.002 10.3653 257.704 10.024C257.405 9.66133 256.968 9.48 256.392 9.48C255.218 9.48 254.632 10.1947 254.632 11.624C254.632 12.4347 254.845 13.192 255.272 13.896C255.72 14.6 256.52 15.4533 257.672 16.456C259.144 17.736 260.157 18.8987 260.712 19.944C261.266 20.9893 261.544 22.216 261.544 23.624C261.544 25.4587 261.085 26.8667 260.168 27.848C259.272 28.8293 257.96 29.32 256.232 29.32ZM268.138 29.32C266.431 29.32 265.141 28.84 264.266 27.88C263.391 26.8987 262.954 25.5013 262.954 23.688V22.408H266.282V23.944C266.282 25.3947 266.89 26.12 268.106 26.12C268.703 26.12 269.151 25.9493 269.45 25.608C269.77 25.2453 269.93 24.6693 269.93 23.88C269.93 22.9413 269.717 22.12 269.29 21.416C268.863 20.6907 268.074 19.8267 266.922 18.824C265.471 17.544 264.458 16.392 263.882 15.368C263.306 14.3227 263.018 13.1493 263.018 11.848C263.018 10.0773 263.466 8.712 264.362 7.752C265.258 6.77067 266.559 6.28 268.266 6.28C269.951 6.28 271.221 6.77067 272.074 7.752C272.949 8.712 273.386 10.0987 273.386 11.912V12.84H270.058V11.688C270.058 10.92 269.909 10.3653 269.61 10.024C269.311 9.66133 268.874 9.48 268.298 9.48C267.125 9.48 266.538 10.1947 266.538 11.624C266.538 12.4347 266.751 13.192 267.178 13.896C267.626 14.6 268.426 15.4533 269.578 16.456C271.05 17.736 272.063 18.8987 272.618 19.944C273.173 20.9893 273.45 22.216 273.45 23.624C273.45 25.4587 272.991 26.8667 272.074 27.848C271.178 28.8293 269.866 29.32 268.138 29.32ZM275.468 6.6H285.068V9.8H278.988V15.72H283.82V18.92H278.988V25.8H285.068V29H275.468V6.6ZM291.732 29.32C290.025 29.32 288.734 28.84 287.86 27.88C286.985 26.8987 286.548 25.5013 286.548 23.688V22.408H289.876V23.944C289.876 25.3947 290.484 26.12 291.7 26.12C292.297 26.12 292.745 25.9493 293.044 25.608C293.364 25.2453 293.524 24.6693 293.524 23.88C293.524 22.9413 293.31 22.12 292.884 21.416C292.457 20.6907 291.668 19.8267 290.516 18.824C289.065 17.544 288.052 16.392 287.476 15.368C286.9 14.3227 286.612 13.1493 286.612 11.848C286.612 10.0773 287.06 8.712 287.956 7.752C288.852 6.77067 290.153 6.28 291.86 6.28C293.545 6.28 294.814 6.77067 295.668 7.752C296.542 8.712 296.98 10.0987 296.98 11.912V12.84H293.652V11.688C293.652 10.92 293.502 10.3653 293.204 10.024C292.905 9.66133 292.468 9.48 291.892 9.48C290.718 9.48 290.132 10.1947 290.132 11.624C290.132 12.4347 290.345 13.192 290.772 13.896C291.22 14.6 292.02 15.4533 293.172 16.456C294.644 17.736 295.657 18.8987 296.212 19.944C296.766 20.9893 297.044 22.216 297.044 23.624C297.044 25.4587 296.585 26.8667 295.668 27.848C294.772 28.8293 293.46 29.32 291.732 29.32Z" fill="#E17132"/>
<defs>
<clipPath id="clip0_8001_124">
<rect width="32" height="32" fill="white"/>
</clipPath>
</defs>
</svg>
