<svg width="27" height="18" viewBox="0 0 27 18" fill="none" xmlns="http://www.w3.org/2000/svg">
<path fill-rule="evenodd" clip-rule="evenodd" d="M0.925047 9C0.925047 8.74955 1.02287 8.50936 1.197 8.33227C1.37113 8.15518 1.6073 8.05569 1.85356 8.05569H23.7534L17.9094 2.11408C17.8231 2.02628 17.7546 1.92205 17.7079 1.80733C17.6611 1.69262 17.6371 1.56967 17.6371 1.4455C17.6371 1.32134 17.6611 1.19839 17.7079 1.08368C17.7546 0.968962 17.8231 0.86473 17.9094 0.776932C17.9957 0.689133 18.0982 0.619488 18.211 0.571972C18.3238 0.524456 18.4447 0.5 18.5668 0.5C18.6889 0.5 18.8098 0.524456 18.9226 0.571972C19.0353 0.619488 19.1378 0.689133 19.2242 0.776932L26.6523 8.33143C26.7387 8.41914 26.8073 8.52335 26.8541 8.63808C26.901 8.7528 26.925 8.87579 26.925 9C26.925 9.12421 26.901 9.2472 26.8541 9.36192C26.8073 9.47665 26.7387 9.58085 26.6523 9.66857L19.2242 17.2231C19.1378 17.3109 19.0353 17.3805 18.9226 17.428C18.8098 17.4755 18.6889 17.5 18.5668 17.5C18.4447 17.5 18.3238 17.4755 18.211 17.428C18.0982 17.3805 17.9957 17.3109 17.9094 17.2231C17.8231 17.1353 17.7546 17.031 17.7079 16.9163C17.6611 16.8016 17.6371 16.6787 17.6371 16.5545C17.6371 16.4303 17.6611 16.3074 17.7079 16.1927C17.7546 16.078 17.8231 15.9737 17.9094 15.8859L23.7534 9.94431H1.85356C1.6073 9.94431 1.37113 9.84482 1.197 9.66773C1.02287 9.49064 0.925047 9.25045 0.925047 9Z" fill="white"/>
</svg>
